0
SECTION
2
HEADER
9
$ACADVER
1
AC1032
9
$DWGCODEPAGE
3
ANSI_1252
9
$LASTSAVEDBY
1

9
$HANDSEED
5
4D
9
$ANGBASE
50
0.0
9
$ANGDIR
70
0
9
$ATTMODE
70
1
9
$AUNITS
70
0
9
$AUPREC
70
0
9
$CECOLOR
62
256
9
$CELTSCALE
40
1.0
9
$CELTYPE
6
BYLAYER
9
$CELWEIGHT
370
-1
9
$CLAYER
8
0
9
$CMLJUST
70
0
9
$CMLSCALE
40
1.0
9
$CMLSTYLE
2
STANDARD
9
$DIMSTYLE
2
STANDARD
9
$TEXTSIZE
40
0.20000000000000001
9
$TEXTSTYLE
7
STANDARD
9
$LUNITS
70
2
9
$LUPREC
70
4
9
$MIRRTEXT
70
0
9
$EXTNAMES
290
1
9
$INSBASE
10
0.0
20
0.0
30
0.0
9
$INSUNITS
70
0
9
$LTSCALE
40
1.0
9
$LWDISPLAY
290
0
9
$PDMODE
70
0
9
$PDSIZE
40
0.0
9
$PLINEGEN
70
0
9
$PSLTSCALE
70
1
9
$SPLINESEGS
70
8
9
$SURFU
70
6
9
$SURFV
70
6
9
$TDCREATE
40
2461299.4797342247
9
$TDUCREATE
40
2461299.4380675461
9
$TDUPDATE
40
2461299.4797342359
9
$TDUUPDATE
40
2461299.4380676043
9
$TDINDWG
40
2.3148148148148148E-08
9
$UCSORG
10
0.0
20
0.0
30
0.0
9
$UCSXDIR
10
1.0
20
0.0
30
0.0
9
$UCSYDIR
10
0.0
20
1.0
30
0.0
9
$DIMADEC
70
0
9
$DIMALT
70
0
9
$DIMALTD
70
2
9
$DIMALTF
40
25.399999999999999
9
$DIMALTRND
40
0.0
9
$DIMALTTD
70
0
9
$DIMALTTZ
70
0
9
$DIMALTU
70
1
9
$DIMALTZ
70
0
9
$DIMAPOST
1

9
$DIMATFIT
70
0
9
$DIMAUNIT
70
0
9
$DIMASZ
40
0.17999999999999999
9
$DIMAZIN
70
0
9
$DIMSAH
70
0
9
$DIMBLK
1

9
$DIMLDRBLK
1

9
$DIMCEN
40
0.089999999999999997
9
$DIMCLRD
70
0
9
$DIMCLRE
70
0
9
$DIMCLRT
70
0
9
$DIMDEC
70
0
9
$DIMDLE
40
0.0
9
$DIMDLI
40
0.38
9
$DIMDSEP
70
46
9
$DIMEXE
40
0.17999999999999999
9
$DIMEXO
40
0.0625
9
$DIMFXLON
70
0
9
$DIMFXL
40
1.0
9
$DIMGAP
40
0.089999999999999997
9
$DIMJUST
70
0
9
$DIMLFAC
40
1.0
9
$DIMLUNIT
70
1
9
$DIMLWD
70
-2
9
$DIMLWE
70
-2
9
$DIMPOST
1

9
$DIMRND
40
0.0
9
$DIMSCALE
40
1.0
9
$DIMSD1
70
0
9
$DIMSD2
70
0
9
$DIMSE1
70
0
9
$DIMSE2
70
0
9
$DIMSOXD
70
0
9
$DIMTAD
70
0
9
$DIMTDEC
70
0
9
$DIMTFAC
40
1.0
9
$DIMTIH
70
1
9
$DIMTIX
70
0
9
$DIMTM
40
0.0
9
$DIMTMOVE
70
0
9
$DIMTOFL
70
0
9
$DIMTOH
70
1
9
$DIMTOL
70
0
9
$DIMLIM
70
0
9
$DIMTOLJ
70
0
9
$DIMTP
40
0.0
9
$DIMTXT
40
0.17999999999999999
9
$DIMTXTDIRECTION
70
0
9
$DIMTZIN
70
0
9
$DIMZIN
70
0
9
$DIMFRAC
70
0
9
$DIMLTYPE
6
ByBlock
9
$DIMLTEX1
6
ByBlock
9
$DIMLTEX2
6
ByBlock
9
$DIMTSZ
40
0.0
9
$DIMTVP
40
0.0
9
$DIMUPT
70
0
9
$REQUIREDVERSIONS
160
0
9
$EXTMIN
10
0.0
20
0.0
30
0.0
9
$EXTMAX
10
0.0
20
0.0
30
0.0
9
$LIMMIN
10
0.0
20
0.0
9
$LIMMAX
10
12.0
20
9.0
9
$ORTHOMODE
70
0
9
$REGENMODE
70
1
9
$FILLMODE
70
1
9
$QTEXTMODE
70
0
9
$TRACEWID
40
0.050000000000000003
9
$DISPSILH
70
0
9
$SKETCHINC
40
0.10000000000000001
9
$FILLETRAD
40
0.0
9
$MENU
1
.
9
$ELEVATION
40
0.0
9
$PELEVATION
40
0.0
9
$THICKNESS
40
0.0
9
$LIMCHECK
70
0
9
$CHAMFERA
40
0.0
9
$CHAMFERB
40
0.0
9
$CHAMFERC
40
0.0
9
$CHAMFERD
40
0.0
9
$SKPOLY
70
0
9
$TDUSRTIMER
40
2.4836806E-08
9
$USRTIMER
70
1
9
$PLINEWID
40
0.0
9
$SPLINETYPE
70
6
9
$SURFTAB1
70
6
9
$SURFTAB2
70
6
9
$SURFTYPE
70
6
9
$UCSBASE
2

9
$UCSNAME
2

9
$UCSORTHOREF
2

9
$UCSORTHOVIEW
70
0
9
$UCSORGTOP
10
0.0
20
0.0
30
0.0
9
$UCSORGBOTTOM
10
0.0
20
0.0
30
0.0
9
$UCSORGLEFT
10
0.0
20
0.0
30
0.0
9
$UCSORGRIGHT
10
0.0
20
0.0
30
0.0
9
$UCSORGFRONT
10
0.0
20
0.0
30
0.0
9
$UCSORGBACK
10
0.0
20
0.0
30
0.0
9
$PUCSBASE
2

9
$PUCSNAME
2

9
$PUCSORG
10
0.0
20
0.0
30
0.0
9
$PUCSXDIR
10
1.0
20
0.0
30
0.0
9
$PUCSYDIR
10
0.0
20
1.0
30
0.0
9
$PUCSORTHOREF
2

9
$PUCSORTHOVIEW
70
0
9
$PUCSORGTOP
10
0.0
20
0.0
30
0.0
9
$PUCSORGBOTTOM
10
0.0
20
0.0
30
0.0
9
$PUCSORGLEFT
10
0.0
20
0.0
30
0.0
9
$PUCSORGRIGHT
10
0.0
20
0.0
30
0.0
9
$PUCSORGFRONT
10
0.0
20
0.0
30
0.0
9
$PUCSORGBACK
10
0.0
20
0.0
30
0.0
9
$USERI1
70
0
9
$USERI2
70
0
9
$USERI3
70
0
9
$USERI4
70
0
9
$USERI5
70
0
9
$USERR1
40
0.0
9
$USERR2
40
0.0
9
$USERR3
40
0.0
9
$USERR4
40
0.0
9
$USERR5
40
0.0
9
$WORLDVIEW
70
1
9
$SHADEDGE
70
3
9
$SHADEDIF
70
70
9
$TILEMODE
70
1
9
$MAXACTVP
70
64
9
$PINSBASE
10
0.0
20
0.0
30
0.0
9
$PLIMCHECK
70
0
9
$PEXTMIN
10
1E+20
20
1E+20
30
1E+20
9
$PEXTMAX
10
-1E+20
20
-1E+20
30
-1E+20
9
$PLIMMIN
10
0.0
20
0.0
9
$PLIMMAX
10
12.0
20
9.0
9
$UNITMODE
70
0
9
$VISRETAIN
70
1
9
$TREEDEPTH
70
3020
9
$PROXYGRAPHICS
70
1
9
$MEASUREMENT
70
0
9
$ENDCAPS
280
0
9
$JOINSTYLE
280
0
9
$HYPERLINKBASE
1

9
$STYLESHEET
1

9
$XEDIT
290
1
9
$CEPSNTYPE
380
0
9
$PSTYLEMODE
290
1
9
$FINGERPRINTGUID
2
{7F77BB05-A568-4A04-AB26-24F210FC3B92}
9
$VERSIONGUID
2
{5BB1FA93-9AD4-4AD3-A9E6-79D7C630CCA0}
9
$PSVPSCALE
40
0.0
9
$OLESTARTUP
290
0
9
$SORTENTS
280
127
9
$INDEXCTL
280
0
9
$HIDETEXT
280
0
9
$XCLIPFRAME
280
2
9
$HALOGAP
280
0
9
$OBSCOLOR
70
257
9
$OBSLTYPE
280
0
9
$INTERSECTIONDISPLAY
280
0
9
$INTERSECTIONCOLOR
70
257
9
$PROJECTNAME
1

9
$CAMERADISPLAY
290
0
9
$LENSLENGTH
40
50.0
9
$CAMERAHEIGHT
40
0.0
9
$STEPSPERSEC
40
2.0
9
$STEPSIZE
40
6.0
9
$3DDWFPREC
40
2.0
9
$PSOLWIDTH
40
0.25
9
$PSOLHEIGHT
40
4.0
9
$LOFTANG1
40
1.5707963267949001
9
$LOFTANG2
40
1.5707963267949001
9
$LOFTMAG1
40
0.0
9
$LOFTMAG2
40
0.0
9
$LOFTPARAM
70
7
9
$LOFTNORMALS
280
1
9
$LATITUDE
40
37.795000000000002
9
$LONGITUDE
40
-122.39400000000001
9
$NORTHDIRECTION
40
0.0
9
$TIMEZONE
70
-8000
9
$LIGHTGLYPHDISPLAY
280
1
9
$TILEMODELIGHTSYNCH
280
1
9
$SOLIDHIST
280
0
9
$SHOWHIST
280
1
9
$DWFFRAME
280
2
9
$DGNFRAME
280
0
9
$REALWORLDSCALE
290
1
9
$INTERFERECOLOR
62
1
9
$CSHADOW
280
0
9
$SHADOWPLANELOCATION
40
0.0
0
ENDSEC
0
SECTION
2
CLASSES
0
CLASS
1
RASTERVARIABLES
2
AcDbRasterVariables
3
ISM
90
0
91
1
280
0
281
0
0
CLASS
1
PLOTSETTINGS
2
AcDbPlotSettings
3
ObjectDBX Classes
90
0
91
1
280
0
281
0
0
CLASS
1
SECTIONOBJECT
2
AcDbSection
3
ObjectDBX Classes
90
1025
91
1
280
0
281
1
0
CLASS
1
TABLEGEOMETRY
2
AcDbTableGeometry
3
ObjectDBX Classes
90
1152
91
1
280
0
281
0
0
ENDSEC
0
SECTION
2
TABLES
0
TABLE
2
APPID
5
10
330
0
100
AcDbSymbolTable
70
8
0
APPID
5
11
330
10
100
AcDbSymbolTableRecord
100
AcDbRegAppTableRecord
2
ACAD
70
0
0
APPID
5
14
330
10
100
AcDbSymbolTableRecord
100
AcDbRegAppTableRecord
2
ACAD_MLEADERVER
70
0
0
APPID
5
13
330
10
100
AcDbSymbolTableRecord
100
AcDbRegAppTableRecord
2
ACAD_NAV_VCDISPLAY
70
0
0
APPID
5
12
330
10
100
AcDbSymbolTableRecord
100
AcDbRegAppTableRecord
2
ACADANNOTATIVE
70
0
0
APPID
5
3C
330
10
100
AcDbSymbolTableRecord
100
AcDbRegAppTableRecord
2
AcCmTransparency
70
0
0
APPID
5
3D
330
10
100
AcDbSymbolTableRecord
100
AcDbRegAppTableRecord
2
AcAecLayerStandard
70
0
0
APPID
5
3E
330
10
100
AcDbSymbolTableRecord
100
AcDbRegAppTableRecord
2
GradientColor1ACI
70
0
0
APPID
5
3F
330
10
100
AcDbSymbolTableRecord
100
AcDbRegAppTableRecord
2
GradientColor2ACI
70
0
0
ENDTAB
0
TABLE
2
VPORT
5
1
330
0
100
AcDbSymbolTable
70
1
0
VPORT
5
2
330
1
100
AcDbSymbolTableRecord
100
AcDbViewportTableRecord
2
*ACTIVE
40
10.0
41
1.0
42
50.0
43
0.0
44
0.0
50
0.0
51
0.0
10
0.0
20
0.0
11
1.0
21
1.0
12
0.0
22
0.0
13
0.0
23
0.0
14
1.0
24
1.0
15
1.0
25
1.0
16
0.0
26
0.0
36
1.0
17
0.0
27
0.0
37
0.0
110
0.0
120
0.0
130
0.0
111
1.0
121
0.0
131
0.0
112
0.0
122
1.0
132
0.0
70
0
71
0
72
1000
73
1
74
3
75
0
76
1
77
0
78
0
281
0
65
0
79
0
146
0.0
0
ENDTAB
0
TABLE
2
LTYPE
5
3
330
0
100
AcDbSymbolTable
70
3
0
LTYPE
5
5
330
3
100
AcDbSymbolTableRecord
100
AcDbLinetypeTableRecord
2
ByBlock
70
0
3

72
65
73
0
40
0.0
0
LTYPE
5
4
330
3
100
AcDbSymbolTableRecord
100
AcDbLinetypeTableRecord
2
ByLayer
70
0
3

72
65
73
0
40
0.0
0
LTYPE
5
6
330
3
100
AcDbSymbolTableRecord
100
AcDbLinetypeTableRecord
2
CONTINUOUS
70
0
3

72
65
73
0
40
0.0
0
ENDTAB
0
TABLE
2
LAYER
5
7
102
{ACAD_XDICTIONARY
360
46
102
}
330
0
100
AcDbSymbolTable
70
1
0
LAYER
5
8
330
7
100
AcDbSymbolTableRecord
100
AcDbLayerTableRecord
2
0
70
0
62
7
6
CONTINUOUS
290
1
370
-3
390
0
0
ENDTAB
0
TABLE
2
STYLE
5
9
330
0
100
AcDbSymbolTable
70
3
0
STYLE
5
B
330
9
100
AcDbSymbolTableRecord
100
AcDbTextStyleTableRecord
2
ANNOTATIVE
3
txt
70
0
71
0
40
0.0
41
1.0
42
0.20000000000000001
50
0.0
0
STYLE
5
A
330
9
100
AcDbSymbolTableRecord
100
AcDbTextStyleTableRecord
2
STANDARD
3
txt
70
0
71
0
40
0.0
41
1.0
42
0.20000000000000001
50
0.0
0
STYLE
5
C
330
9
100
AcDbSymbolTableRecord
100
AcDbTextStyleTableRecord
2
SUN_LABEL
3
Arial.ttf
70
0
71
0
40
0.0
41
1.0
42
0.20000000000000001
50
0.0
0
ENDTAB
0
TABLE
2
DIMSTYLE
5
15
330
0
100
AcDbSymbolTable
70
2
100
AcDbDimStyleTable
0
DIMSTYLE
105
17
330
15
100
AcDbSymbolTableRecord
100
AcDbDimStyleTableRecord
2
ANNOTATIVE
3

4

40
1.0
41
0.17999999999999999
42
0.0625
43
0.38
44
0.17999999999999999
45
0.0
46
0.0
47
0.0
48
0.0
49
1.0
70
0
71
0
72
0
73
1
74
1
75
0
76
0
77
0
78
0
79
0
140
0.17999999999999999
141
0.089999999999999997
142
0.0
143
25.399999999999999
144
1.0
145
0.0
146
1.0
147
0.089999999999999997
148
0.0
170
0
171
2
172
0
174
0
175
0
176
0
177
0
178
0
179
0
271
0
272
0
273
1
274
0
275
0
276
0
277
1
278
46
279
0
280
0
281
0
282
0
283
0
284
0
285
0
286
0
288
1
289
0
290
0
294
0
340
A
173
0
345
5
346
5
347
5
371
-2
372
-2
0
DIMSTYLE
105
16
330
15
100
AcDbSymbolTableRecord
100
AcDbDimStyleTableRecord
2
STANDARD
3

4

40
1.0
41
0.17999999999999999
42
0.0625
43
0.38
44
0.17999999999999999
45
0.0
46
0.0
47
0.0
48
0.0
49
1.0
70
0
71
0
72
0
73
1
74
1
75
0
76
0
77
0
78
0
79
0
140
0.17999999999999999
141
0.089999999999999997
142
0.0
143
25.399999999999999
144
1.0
145
0.0
146
1.0
147
0.089999999999999997
148
0.0
170
0
171
2
172
0
174
0
175
0
176
0
177
0
178
0
179
0
271
0
272
0
273
1
274
0
275
0
276
0
277
1
278
46
279
0
280
0
281
0
282
0
283
0
284
0
285
0
286
0
288
1
289
0
290
0
294
0
340
A
173
0
345
5
346
5
347
5
371
-2
372
-2
0
ENDTAB
0
TABLE
2
VIEW
5
D
330
0
100
AcDbSymbolTable
70
1
0
VIEW
5
E
330
D
100
AcDbSymbolTableRecord
100
AcDbViewTableRecord
2
SUN_VIEW
70
0
40
40.0
10
0.0
20
0.0
41
60.0
11
0.0
21
0.0
31
1.0
12
0.0
22
0.0
32
0.0
42
1.0
43
0.0
44
1.0
50
0.0
71
0
281
0
72
0
73
0
334
31
0
ENDTAB
0
TABLE
2
UCS
5
F
330
0
100
AcDbSymbolTable
70
0
0
ENDTAB
0
TABLE
2
BLOCK_RECORD
5
18
330
0
100
AcDbSymbolTable
70
2
0
BLOCK_RECORD
5
19
330
18
100
AcDbSymbolTableRecord
100
AcDbBlockTableRecord
2
*MODEL_SPACE
340
2E
0
BLOCK_RECORD
5
1A
330
18
100
AcDbSymbolTableRecord
100
AcDbBlockTableRecord
2
*Paper_Space
340
37
0
ENDTAB
0
ENDSEC
0
SECTION
2
BLOCKS
0
BLOCK
5
1B
330
19
100
AcDbEntity
67
0
8
0
100
AcDbBlockBegin
2
*MODEL_SPACE
70
0
10
0.0
20
0.0
30
0.0
3
*MODEL_SPACE
4

0
ENDBLK
5
1C
330
19
100
AcDbEntity
8
0
100
AcDbBlockEnd
0
BLOCK
5
1D
330
1A
100
AcDbEntity
67
1
8
0
100
AcDbBlockBegin
2
*PAPER_SPACE
70
0
10
0.0
20
0.0
30
0.0
3
*PAPER_SPACE
4

0
ENDBLK
5
1E
330
1A
100
AcDbEntity
8
0
100
AcDbBlockEnd
0
ENDSEC
0
SECTION
2
ENTITIES
0
SECTIONOBJECT
5
31
330
19
100
AcDbEntity
67
0
8
0
62
256
6
ByLayer
370
-1
48
1.0
60
0
100
AcDbSection
90
4
91
17
1
東京 Literal\U+005CU+0041
10
1.0
20
2.0
30
3.0
40
5.25
41
-15.5
70
70
62
9
63
256
411
Book$Color
92
2
11
1.0
21
2.0
31
3.0
11
-4.0
21
5.0
31
6.0
93
1
12
9.0
22
8.0
32
7.0
360
0
0
POLYLINE
5
32
330
19
100
AcDbEntity
67
0
8
0
62
256
6
ByLayer
370
-1
48
1.0
60
0
100
AcDb3dPolyline
10
0.0
20
0.0
30
0.0
70
8
75
0
210
0.0
220
0.0
230
1.0
0
VERTEX
5
38
330
32
100
AcDbEntity
8
0
62
256
100
AcDbVertex
100
AcDb3dPolylineVertex
10
0.0
20
0.0
30
0.0
70
32
40
0.0
41
0.0
0
VERTEX
5
39
330
32
100
AcDbEntity
8
0
62
256
100
AcDbVertex
100
AcDb3dPolylineVertex
10
3.0
20
0.0
30
1.0
70
32
40
0.0
41
0.0
0
VERTEX
5
3A
330
32
100
AcDbEntity
8
0
62
256
100
AcDbVertex
100
AcDb3dPolylineVertex
10
5.0
20
4.0
30
2.0
70
32
40
0.0
41
0.0
0
VERTEX
5
44
330
32
100
AcDbEntity
8
0
100
AcDbVertex
100
AcDb3dPolylineVertex
10
1.0
20
2.0
30
3.0
70
32
0
SEQEND
5
3B
330
32
100
AcDbEntity
8
0
0
HATCH
5
33
330
19
100
AcDbEntity
67
0
8
0
62
256
6
ByLayer
370
-1
48
1.0
60
0
100
AcDbHatch
10
0.0
20
0.0
30
0.0
210
0.0
220
0.0
230
1.0
2
SOLID
70
1
71
0
91
1
92
5
93
2
72
4
94
2
73
0
74
1
95
6
96
3
40
-2.0
40
-2.0
40
-2.0
40
3.0
40
3.0
40
3.0
10
4.0
20
-2.0
10
13.0
20
13.0
42
-2.5
10
18.0
20
-2.0
97
0
72
1
10
18.0
20
-2.0
11
4.0
21
-2.0
97
0
75
0
76
1
47
0.0
98
1
10
999
20
-2.0
1001
ACAD
1010
0.0
1020
0.0
1030
0.0
0
VIEWPORT
5
36
330
1A
100
AcDbEntity
67
1
8
0
62
256
6
ByLayer
370
-1
48
1.0
60
0
100
AcDbViewport
10
0.0
20
0.0
30
0.0
40
297.0
41
210.0
68
1
69
1
12
50.0
22
100.0
13
0.0
23
0.0
14
10.0
24
10.0
15
10.0
25
10.0
16
0.0
26
0.0
36
1.0
17
0.0
27
0.0
37
0.0
42
50.0
43
0.0
44
0.0
45
250.0
50
0.0
51
0.0
72
1000
90
819232
110
0.0
120
0.0
130
0.0
111
1.0
121
0.0
131
0.0
112
0.0
122
1.0
132
0.0
0
ENDSEC
0
SECTION
2
OBJECTS
0
DICTIONARY
5
1F
330
0
100
AcDbDictionary
280
0
281
0
3
ACAD_GROUP
350
20
3
ACAD_LAYOUT
350
35
3
ACAD_DGNDEFINITIONS
350
29
3
ACAD_DWFDEFINITIONS
350
2A
3
ACAD_PDFDEFINITIONS
350
2B
3
ACAD_MLINESTYLE
350
27
3
ACAD_IMAGE_DICT
350
28
3
ACAD_IMAGE_VARS
350
2C
3
SUN_PAGE
350
21
3
SUN_STUDY
350
22
3
SUN_VISUAL
350
23
3
MIXED_GEOMETRY
360
34
0
DICTIONARY
5
20
330
1F
100
AcDbDictionary
280
1
281
1
0
DICTIONARY
5
35
330
1F
100
AcDbDictionary
280
1
281
1
3
Model
350
2E
3
Layout1
350
37
0
DICTIONARY
5
29
330
1F
100
AcDbDictionary
280
1
281
1
0
DICTIONARY
5
2A
330
1F
100
AcDbDictionary
280
1
281
1
0
DICTIONARY
5
2B
330
1F
100
AcDbDictionary
280
1
281
1
0
DICTIONARY
5
27
330
1F
100
AcDbDictionary
280
1
281
1
3
Standard
350
30
0
DICTIONARY
5
28
330
1F
100
AcDbDictionary
280
1
281
1
0
DICTIONARY
5
46
330
7
100
AcDbDictionary
280
1
281
1
3
ACAD_LAYERSTATES
360
4C
0
DICTIONARY
5
4C
330
46
100
AcDbDictionary
280
1
281
1
0
PLOTSETTINGS
5
21
330
1F
100
AcDbPlotSettings
1

2

4

6
SUN_PAGE
40
0.0
41
0.0
42
0.0
43
0.0
44
297.0
45
210.0
46
0.0
47
0.0
48
0.0
49
0.0
140
0.0
141
0.0
142
1.0
143
1.0
70
0
72
0
73
0
74
1
7

75
0
76
0
77
2
78
100
147
1.0
148
0.0
149
0.0
0
SUNSTUDY
5
22
330
1F
100
AcDbSunStudy
90
0
1
Stored solar study
2
Producer storage probe
70
0
3
SHEET_SET
290
1
4
SHEET_SUBSET
291
0
91
0
292
1
93
28800
94
64800
95
3600
73
4
290
0
290
1
290
0
290
1
340
21
341
E
342
23
74
2
75
6
76
2
77
3
40
2.5
293
1
294
1
343
C
0
VISUALSTYLE
5
23
330
1F
100
AcDbVisualStyle
2
SUN_VISUAL
70
0
71
1
72
1
73
1
90
0
40
0.0
41
0.0
62
0
63
0
421
0
74
0
91
0
64
0
65
0
75
0
175
0
42
0.0
92
0
66
0
43
0.0
76
0
77
0
78
0
67
0
79
0
170
0
171
0
290
0
174
0
93
0
44
0.0
173
0
291
0
0
TABLEGEOMETRY
5
34
330
1F
100
AcDbTableGeometry
90
1
91
1
92
1
93
7
40
10.5
41
20.25
330
44
94
1
10
1.0
20
2.0
30
3.0
11
4.0
21
5.0
31
6.0
43
7.0
44
8.0
45
9.0
46
10.0
95
11
0
LAYOUT
5
2E
330
35
100
AcDbPlotSettings
1

2
none_device
4
ISO_A4_(210.00_x_297.00_MM)
6

40
7.5
41
20.0
42
7.5
43
20.0
44
210.0
45
297.0
46
0.0
47
0.0
48
0.0
49
0.0
140
0.0
141
0.0
142
1.0
143
1.0
70
11952
72
1
73
1
74
1
7

75
0
76
0
77
2
78
300
147
1.0
148
0.0
149
0.0
100
AcDbLayout
1
Model
71
1
10
-20.0
20
-7.5
11
277.0
21
202.5
12
0.0
22
0.0
32
0.0
14
25.699999999999999
24
19.5
34
0.0
15
231.30000000000001
25
175.5
35
0.0
146
0.0
13
0.0
23
0.0
33
0.0
16
1.0
26
0.0
36
0.0
17
0.0
27
1.0
37
0.0
76
0
330
19
0
LAYOUT
5
37
330
35
100
AcDbPlotSettings
1

2
none_device
4
ISO_A4_(210.00_x_297.00_MM)
6

40
7.5
41
20.0
42
7.5
43
20.0
44
210.0
45
297.0
46
0.0
47
0.0
48
0.0
49
0.0
140
0.0
141
0.0
142
1.0
143
1.0
70
688
72
1
73
1
74
1
7

75
0
76
0
77
2
78
300
147
1.0
148
0.0
149
0.0
100
AcDbLayout
1
Layout1
71
1
10
-20.0
20
-7.5
11
277.0
21
202.5
12
0.0
22
0.0
32
0.0
14
25.699999999999999
24
19.5
34
0.0
15
231.30000000000001
25
175.5
35
0.0
146
0.0
13
0.0
23
0.0
33
0.0
16
1.0
26
0.0
36
0.0
17
0.0
27
1.0
37
0.0
76
0
330
1A
0
MLINESTYLE
5
30
330
27
100
AcDbMlineStyle
2
Standard
70
0
3

62
256
51
90.0
52
90.0
71
2
49
0.5
62
256
6
ByLayer
49
-0.5
62
256
6
ByLayer
0
RASTERVARIABLES
5
2C
330
1F
100
AcDbRasterVariables
90
0
70
1
71
1
72
0
0
ENDSEC
0
EOF
